<svg xmlns="http://www.w3.org/2000/svg" xmlns:xlink="http://www.w3.org/1999/xlink" width="388" height="148" viewBox="0 0 388 148">
  <defs>
    <clipPath id="clip-path">
      <rect id="Rectangle_1069" data-name="Rectangle 1069" width="166.122" height="117.418" fill="none"/>
    </clipPath>
  </defs>
  <g id="Group_6266" data-name="Group 6266" transform="translate(-12 -966)">
    <path id="Path_324" data-name="Path 324" d="M10,0H378a10,10,0,0,1,10,10V138a10,10,0,0,1-10,10H10A10,10,0,0,1,0,138V10A10,10,0,0,1,10,0Z" transform="translate(12 966)" fill="#a2d22b"/>
    <g id="Group_6264" data-name="Group 6264" transform="translate(219.439 981.291)">
      <g id="Group_6263" data-name="Group 6263">
        <g id="Group_6262" data-name="Group 6262" clip-path="url(#clip-path)">
          <path id="Path_278" data-name="Path 278" d="M150.9,58.71c0-6.253-7.542-11.238-9.374-16.881-1.9-5.848,1.207-14.3-2.335-19.169-3.577-4.916-12.6-4.557-17.517-8.135C116.8,10.982,114.374,2.27,108.527.371c-5.643-1.832-12.7,3.73-18.956,3.73S76.259-1.461,70.616.371c-5.848,1.9-8.275,10.611-13.143,14.153-4.916,3.578-13.939,3.219-17.517,8.135-3.542,4.868-.436,13.321-2.335,19.169-1.832,5.642-9.374,10.628-9.374,16.881s7.542,11.238,9.374,16.881c1.9,5.848-1.207,14.3,2.335,19.169,3.577,4.916,12.6,4.557,17.517,8.135,4.868,3.543,7.3,12.255,13.143,14.154,5.643,1.832,12.7-3.73,18.956-3.73s13.313,5.562,18.955,3.73c5.848-1.9,8.275-10.611,13.143-14.153,4.916-3.578,13.94-3.22,17.518-8.135,3.542-4.868.436-13.321,2.335-19.169,1.832-5.643,9.374-10.628,9.374-16.881M89.571,107.477A48.767,48.767,0,1,1,138.339,58.71a48.768,48.768,0,0,1-48.767,48.767" transform="translate(-6.51 0)" fill="#063"/>
          <path id="Path_279" data-name="Path 279" d="M93.812,15a47.165,47.165,0,1,0,47.165,47.165A47.219,47.219,0,0,0,93.812,15m0,93.537a46.372,46.372,0,1,1,46.372-46.372,46.424,46.424,0,0,1-46.372,46.372" transform="translate(-10.751 -3.458)" fill="#063"/>
          <path id="Path_280" data-name="Path 280" d="M51.516,81.92c-.117.354-.235.708-.235.708l1.382-.432,1.163.9-.008-1.437.6-.384c.295-.189.612-.375.612-.375L53.7,80.391l-.28-1.411-.959,1.108-1.441-.152.743,1.285a1.448,1.448,0,0,0-.085.218l-.162.481" transform="translate(-11.759 -18.203)" fill="#d0003b"/>
          <path id="Path_281" data-name="Path 281" d="M54.193,90.266l1.234.728-.154-1.439,1.1-.937-1.421-.3-.279-.666-.192-.46a1.109,1.109,0,0,1-.074-.212l-.129.192-.252.419-.364.619-1.461.067.992,1.146L52.88,90.9Z" transform="translate(-12.032 -20.048)" fill="#d0003b"/>
          <path id="Path_282" data-name="Path 282" d="M57.878,97.16l.926-1.08-1.418-.092L56.7,94.723l-.589,1.343-1.421.28,1.09,1.009-.039,1.485,1.193-.823,1.373.514Z" transform="translate(-12.605 -21.832)" fill="#d0003b"/>
          <path id="Path_283" data-name="Path 283" d="M62.112,105.418l-.195-.459-.282-.666.78-1.224-1.441.136-.923-1.115-.34,1.391-1.374.5,1.279.8.128,1.511,1.067-1s1.384.344,1.406.322l-.106-.2" transform="translate(-13.446 -23.53)" fill="#d0003b"/>
          <path id="Path_284" data-name="Path 284" d="M66.98,109.487l-.709.187-.7.163-1.018-1.013-.173,1.461-1.274.687.668.328a5.639,5.639,0,0,0,.689.3l.392,1.437.9-1.14,1.456.095-.8-1.2Z" transform="translate(-14.546 -25.082)" fill="#d0003b"/>
          <path id="Path_285" data-name="Path 285" d="M72.112,116.548l.392-1.4-1.334.548-1.2-.806.076,1.438-1.165.876,1.449.4.556,1.416.73-1.27s.349,0,.723-.048l.736-.083-.5-.511-.459-.559" transform="translate(-15.876 -26.479)" fill="#063"/>
          <path id="Path_286" data-name="Path 286" d="M78.779,119.923l-1.251.763a2.214,2.214,0,0,1-.206-.092l-.433-.234-.632-.342.256,1.457L75.5,122.5l.229.039a4.48,4.48,0,0,0,.512.069l.757.066.79,1.271.526-1.355,1.414-.328-1.111-.92Z" transform="translate(-17.401 -27.64)" fill="#063"/>
          <path id="Path_287" data-name="Path 287" d="M85.726,123.636l-1.11.911-1.377-.432.492,1.362-.856,1.177,1.5-.028s.933,1.209.953,1.177l.314-1.409,1.366-.579s-1.264-.679-1.246-.716Z" transform="translate(-19.101 -28.496)" fill="#063"/>
          <path id="Path_288" data-name="Path 288" d="M93.157,126.284l-.968,1.1-.225-.024a3.5,3.5,0,0,1-.49-.073l-.7-.146.33.66c.085.166.171.332.234.457s.112.2.112.2l-.668,1.29a1.646,1.646,0,0,0,.232-.035l.516-.106.742-.157,1.129.988.1-1.452,1.251-.725L93.42,127.7Z" transform="translate(-20.921 -29.106)" fill="#063"/>
          <path id="Path_289" data-name="Path 289" d="M101.278,129.21l-.469-1.389-.789,1.2-1.443-.009.873,1.159-.467,1.377,1.422-.467.623.436a5.334,5.334,0,0,0,.636.4l-.117-1.438,1.134-.958s-1.409-.264-1.4-.308" transform="translate(-22.72 -29.46)" fill="#063"/>
          <path id="Path_290" data-name="Path 290" d="M109.293,129.468l-.667-1.27-.6,1.334a4.186,4.186,0,0,1-.711.108l-.715.068,1.033,1.067-.258,1.42c.005.04,1.335-.716,1.335-.716l1.368.608-.329-1.417.983-1.065Z" transform="translate(-24.568 -29.547)" fill="#063"/>
          <path id="Path_291" data-name="Path 291" d="M118.319,129.143l.395-.625-.714.076a3.686,3.686,0,0,1-.495.021l-.225,0-.854-1.187-.4,1.379-1.381.422,1.173.846-.044,1.455,1.222-.87.723.231.5.157a1.511,1.511,0,0,0,.228.061l-.536-1.354.132-.182.279-.431" transform="translate(-26.423 -29.37)" fill="#063"/>
          <path id="Path_292" data-name="Path 292" d="M126.457,126.251l-1.412.295-1.012-1.017-.182,1.454c.015.041-1.314.583-1.314.583l1.3.712.171,1.433a5.374,5.374,0,0,0,.545-.519l.523-.551,1.488.176-.733-1.257Z" transform="translate(-28.243 -28.932)" fill="#063"/>
          <path id="Path_293" data-name="Path 293" d="M133.783,122.864s-1.317.569-1.334.531l-1.169-.883.022,1.434-1.2.808,1.373.464.389,1.4.912-1.19s1.525.018,1.512-.016l-.907-1.123Z" transform="translate(-29.987 -28.237)" fill="#063"/>
          <path id="Path_294" data-name="Path 294" d="M140.54,118.437l-1.27.689-1.27-.676.252,1.438s-.249.265-.517.5l-.553.457s1.456.313,1.444.284l.6,1.334.693-1.355,1.479-.262-1.072-.986Z" transform="translate(-31.618 -27.298)" fill="#063"/>
          <path id="Path_295" data-name="Path 295" d="M146.547,112.939l-1.11.911s-.336-.11-.686-.241l-.686-.255.439,1.36-.915,1.113,1.456.048.783,1.224.529-1.4s.372-.095.724-.219l.7-.262-1.2-.81Z" transform="translate(-33.095 -26.03)" fill="#063"/>
          <path id="Path_296" data-name="Path 296" d="M151.748,106.671l-1.025,1.021-1.419-.278.657,1.3s-.686,1.277-.718,1.252c0,0,.379-.018.729-.071l.709-.1.964,1.1.273-1.492,1.349-.676-1.317-.629Z" transform="translate(-34.398 -24.586)" fill="#063"/>
          <path id="Path_297" data-name="Path 297" d="M155.819,99.672l-.8,1.191-.713-.022-.714-.033.813,1.167-.561,1.325,1.415-.376,1.105.938.108-1.482a1.915,1.915,0,0,0,.19-.134l.406-.305.594-.452-1.386-.422Z" transform="translate(-35.399 -22.973)" fill="#063"/>
          <path id="Path_298" data-name="Path 298" d="M159.466,93.492l-.3-.653-.209-.442c-.057-.12-.106-.2-.106-.2a1.22,1.22,0,0,1-.1.2l-.237.439-.344.636-1.443.152,1,1.043-.3,1.417,1.3-.6,1.244.766-.169-1.5,1.1-1.042Z" transform="translate(-36.123 -21.249)" fill="#063"/>
          <path id="Path_299" data-name="Path 299" d="M161.517,85.522l-.843-1.2-.421,1.375-1.373.372.574.435.558.441-.152,1.429,1.246-.777,1.333.568-.163-.727c-.041-.18-.082-.36-.113-.495a2.107,2.107,0,0,0-.065-.226l.869-1.205Z" transform="translate(-36.619 -19.435)" fill="#063"/>
          <path id="Path_300" data-name="Path 300" d="M162.352,77.352l-.961-1.058-.282,1.421-1.333.572,1.269.7.137,1.441,1.063-.958,1.414.364-.606-1.385.743-1.319Z" transform="translate(-36.826 -17.584)" fill="#d0003b"/>
          <path id="Path_301" data-name="Path 301" d="M163.162,69.437c.117-.354.235-.708.235-.708l-1.383.432-1.162-.9.008,1.437-.6.384c-.295.189-.612.375-.612.375l1.328.507.28,1.411.959-1.108,1.441.152-.743-1.285a1.447,1.447,0,0,0,.085-.218l.162-.481" transform="translate(-36.796 -15.733)" fill="#d0003b"/>
          <path id="Path_302" data-name="Path 302" d="M160.435,61.121l-1.234-.728.154,1.439-1.1.937,1.421.3s.139.333.279.666l.192.461a1.109,1.109,0,0,1,.074.212l.129-.192.252-.419c.182-.31.364-.619.364-.619l1.461-.067-.993-1.146.317-1.478Z" transform="translate(-36.474 -13.92)" fill="#d0003b"/>
          <path id="Path_303" data-name="Path 303" d="M156.768,54.195l-.926,1.08,1.418.092.685,1.264.589-1.342,1.421-.281L158.865,54l.039-1.485-1.193.823-1.373-.514Z" transform="translate(-35.919 -12.104)" fill="#d0003b"/>
          <path id="Path_304" data-name="Path 304" d="M152.544,45.911l.195.459.282.666-.78,1.224,1.441-.136.922,1.115.341-1.391,1.374-.5-1.279-.8-.128-1.511-1.068,1s-1.384-.345-1.405-.322l.106.2" transform="translate(-35.089 -10.38)" fill="#d0003b"/>
          <path id="Path_305" data-name="Path 305" d="M148.889,39.43l-1.456-.095.8,1.2-.569,1.308.709-.187.7-.163L150.09,42.5l.173-1.461,1.274-.686-.669-.329a5.584,5.584,0,0,0-.689-.3l-.392-1.437Z" transform="translate(-33.981 -8.825)" fill="#d0003b"/>
          <path id="Path_306" data-name="Path 306" d="M142.509,34.8l-.392,1.4,1.333-.548,1.2.806-.076-1.439,1.165-.875-1.449-.4-.556-1.416-.729,1.27s-.35,0-.723.048l-.736.083.5.511.459.559" transform="translate(-32.624 -7.452)" fill="#063"/>
          <path id="Path_307" data-name="Path 307" d="M135.831,31.458l1.252-.764s.085.032.206.092l.432.235.632.342-.256-1.457,1.015-1.027-.229-.039a4.616,4.616,0,0,0-.512-.07l-.757-.065-.79-1.271-.527,1.355-1.414.328,1.111.92Z" transform="translate(-31.088 -6.323)" fill="#063"/>
          <path id="Path_308" data-name="Path 308" d="M128.913,27.7l1.11-.911,1.377.432-.492-1.362.856-1.177-1.5.028s-.933-1.21-.953-1.177L129,24.946l-1.366.579s1.264.679,1.245.716Z" transform="translate(-29.417 -5.425)" fill="#063"/>
          <path id="Path_309" data-name="Path 309" d="M121.529,25.062l.967-1.1.225.024a3.361,3.361,0,0,1,.489.073l.7.146-.331-.66-.234-.457a2.145,2.145,0,0,0-.112-.2l.668-1.29a1.646,1.646,0,0,0-.232.035l-.516.106-.741.158-1.13-.989-.1,1.452-1.251.725,1.331.559Z" transform="translate(-27.642 -4.82)" fill="#063"/>
          <path id="Path_310" data-name="Path 310" d="M113.37,22.152l.469,1.389.79-1.2,1.442.008-.873-1.158.467-1.377-1.422.467-.623-.436a5.334,5.334,0,0,0-.636-.4l.117,1.439-1.133.957s1.41.264,1.4.308" transform="translate(-25.806 -4.482)" fill="#063"/>
          <path id="Path_311" data-name="Path 311" d="M105.347,21.922l.667,1.27.6-1.334a4.2,4.2,0,0,1,.711-.109l.715-.068-1.033-1.067.258-1.42c-.005-.04-1.334.716-1.334.716l-1.369-.608.329,1.417-.983,1.065Z" transform="translate(-23.949 -4.424)" fill="#063"/>
          <path id="Path_312" data-name="Path 312" d="M96.339,22.216l-.395.625.713-.076a3.576,3.576,0,0,1,.5-.021l.225,0,.854,1.187.4-1.379,1.381-.422-1.173-.847.044-1.454-1.222.87-.723-.231-.5-.158a1.638,1.638,0,0,0-.228-.061l.536,1.354-.132.182-.279.431" transform="translate(-22.113 -4.57)" fill="#063"/>
          <path id="Path_313" data-name="Path 313" d="M88.215,25.084l1.412-.294,1.012,1.016.182-1.454c-.015-.041,1.313-.582,1.313-.582l-1.3-.712-.171-1.434a5.374,5.374,0,0,0-.545.519l-.524.551-1.487-.176.733,1.257Z" transform="translate(-20.307 -4.984)" fill="#063"/>
          <path id="Path_314" data-name="Path 314" d="M80.841,28.494s1.317-.569,1.334-.532l1.169.883-.022-1.434,1.2-.808-1.373-.465-.389-1.4-.91,1.19s-1.525-.018-1.513.016l.906,1.123Z" transform="translate(-18.515 -5.701)" fill="#063"/>
          <path id="Path_315" data-name="Path 315" d="M74.074,32.943l1.27-.689,1.271.676-.252-1.438s.249-.265.517-.5l.553-.457s-1.456-.313-1.445-.284l-.6-1.334L74.7,30.267l-1.48.262,1.073.986Z" transform="translate(-16.875 -6.664)" fill="#063"/>
          <path id="Path_316" data-name="Path 316" d="M68.076,38.4l1.11-.911s.336.11.686.241l.686.255-.439-1.36.915-1.113-1.456-.048L68.8,34.244l-.529,1.4s-.372.095-.724.219l-.7.262,1.2.81Z" transform="translate(-15.407 -7.893)" fill="#063"/>
          <path id="Path_317" data-name="Path 317" d="M62.925,44.652l1.025-1.021,1.419.278-.657-1.3s.686-1.276.718-1.252c0,0-.379.018-.729.071l-.71.1-.963-1.1-.274,1.492L61.4,42.6l1.317.63Z" transform="translate(-14.153 -9.319)" fill="#063"/>
          <path id="Path_318" data-name="Path 318" d="M58.839,51.66l.8-1.191.712.022.714.033-.813-1.167.561-1.324-1.415.376L58.3,47.469l-.109,1.482a2.091,2.091,0,0,0-.19.134l-.406.305L57,49.843l1.386.422Z" transform="translate(-13.137 -10.941)" fill="#063"/>
          <path id="Path_319" data-name="Path 319" d="M55.159,57.881s.15.327.3.653l.209.442c.057.12.106.2.106.2a1.22,1.22,0,0,1,.1-.2l.237-.439.344-.636L57.9,57.75l-1-1.043.3-1.417-1.3.6-1.244-.766.169,1.5-1.1,1.042Z" transform="translate(-12.38 -12.705)" fill="#063"/>
          <path id="Path_320" data-name="Path 320" d="M53.137,65.851l.843,1.2.421-1.376,1.373-.372-.574-.435-.559-.441L54.793,63l-1.246.777-1.333-.569s.082.364.162.728l.114.495a2.1,2.1,0,0,0,.065.226l-.869,1.205Z" transform="translate(-11.913 -14.52)" fill="#063"/>
          <path id="Path_321" data-name="Path 321" d="M52.321,74l.961,1.058.282-1.421,1.334-.572-1.27-.7-.137-1.441-1.063.958-1.414-.364.606,1.385-.743,1.319Z" transform="translate(-11.726 -16.346)" fill="#d0003b"/>
          <path id="Path_322" data-name="Path 322" d="M148.109,22.1,6.511,66.977a7.16,7.16,0,0,0-4.762,8.9l7.9,24.936a7.16,7.16,0,0,0,9.02,4.532l141.6-44.874a7.16,7.16,0,0,0,4.763-8.9l-7.9-24.935a7.16,7.16,0,0,0-9.02-4.533" transform="translate(-0.329 -5.015)" fill="#063"/>
          <path id="Path_323" data-name="Path 323" d="M160.271,61.189l-141.6,44.874a8.246,8.246,0,0,1-10.4-5.247L.373,75.88A8.247,8.247,0,0,1,5.851,65.6l141.6-44.874a8.246,8.246,0,0,1,10.4,5.248l7.9,24.935a8.246,8.246,0,0,1-5.477,10.278M6.514,67.693a6.048,6.048,0,0,0-4.047,7.523l7.9,24.935a6.046,6.046,0,0,0,7.641,3.817l141.6-44.874a6.048,6.048,0,0,0,4.048-7.521l-7.9-24.935a6.048,6.048,0,0,0-7.641-3.818Z" transform="translate(0 -4.685)" fill="#fff"/>
        </g>
      </g>
      <text id="GUARANTEE" transform="matrix(0.953, -0.302, 0.302, 0.953, 16.365, 88.237)" fill="#fbfbfb" font-size="23" font-family="Poppins-ExtraBold, Poppins" font-weight="800"><tspan x="0" y="0" letter-spacing="0.025em">GUARANTE</tspan><tspan y="0">E</tspan></text>
      <text id="LOWEST" transform="translate(52.385 44.739) rotate(-17.584)" fill="#063" font-size="12" font-family="Poppins-ExtraBold, Poppins" font-weight="800"><tspan x="0" y="0" letter-spacing="0.024em">L</tspan><tspan y="0" letter-spacing="0.025em">OWE</tspan><tspan y="0" letter-spacing="0.024em">S</tspan><tspan y="0">T</tspan></text>
      <text id="PRICE" transform="matrix(0.953, -0.302, 0.302, 0.953, 76.25, 95.545)" fill="#063" font-size="12" font-family="Poppins-ExtraBold, Poppins" font-weight="800"><tspan x="0" y="0" letter-spacing="0.025em">P</tspan><tspan y="0" letter-spacing="0.024em">R</tspan><tspan y="0" letter-spacing="0.025em">I</tspan><tspan y="0" letter-spacing="0.024em">C</tspan><tspan y="0">E</tspan></text>
    </g>
    <g id="Group_6265" data-name="Group 6265" transform="translate(0 6.291)">
      <text id="Always_cheaper_than_booking_direct_with_our_registered_operators_guaranteed_" data-name="Always cheaper than 
booking direct with our 
registered operators,
guaranteed!" transform="translate(26.439 996)" fill="#09422d" font-size="18" font-family="Roboto-Black, Roboto" font-weight="800" letter-spacing="0.01em"><tspan x="0" y="0">Always cheaper than </tspan><tspan x="0" y="16">booking direct with our </tspan><tspan x="0" y="32">registered operators,</tspan><tspan x="0" y="48">guaranteed!</tspan></text>
      <text id="If_you_find_it_cheaper_direct_let_us_know_and_we_ll_beat_it." data-name="If you find it cheaper direct,
let us know and we’ll beat it." transform="translate(26.439 1071)" fill="#09422d" font-size="15" font-family="Roboto-MediumItalic, Roboto" font-weight="500" font-style="italic"><tspan x="0" y="0">If you find it cheaper direct,</tspan><tspan x="0" y="15">let us know and we’ll beat it.</tspan></text>
    </g>
  </g>
</svg>
