<svg id="Group_6176" data-name="Group 6176" xmlns="http://www.w3.org/2000/svg" width="16.5" height="12.713" viewBox="0 0 16.5 12.713">
  <path id="path" d="M52.25,806.4l2.25,3v3.75H53a2.25,2.25,0,0,1-4.5,0H44a2.25,2.25,0,0,1-4.5,0H38V804.9a1.538,1.538,0,0,1,1.5-1.5H50v3Zm-11.325,7.575a1.284,1.284,0,1,0-.3-.825A1.025,1.025,0,0,0,40.925,813.975Zm9,0a1.284,1.284,0,1,0-.3-.825A1.025,1.025,0,0,0,49.925,813.975Zm1.95-6.45H50V809.4h3.375Z" transform="translate(-38 -802.687)" fill="#fd5634"/>
  <rect id="Rectangle_254" data-name="Rectangle 254" width="7.5" height="4.5" transform="translate(2.216)" fill="#fff"/>
</svg>
