<svg xmlns="http://www.w3.org/2000/svg" xmlns:xlink="http://www.w3.org/1999/xlink" width="21" height="10" viewBox="0 0 21 10">
  <defs>
    <clipPath id="clip-path">
      <rect id="Rectangle_1069" data-name="Rectangle 1069" width="21" height="10" transform="translate(0 0.09)" fill="#4b4b4b"/>
    </clipPath>
  </defs>
  <g id="Group_6195" data-name="Group 6195" transform="translate(-0.708 -0.017)">
    <g id="Group_6195-2" data-name="Group 6195" transform="translate(0.708 -0.073)" clip-path="url(#clip-path)">
      <path id="Path_278" data-name="Path 278" d="M0,6.893a3.066,3.066,0,0,1,.015-.361,1.185,1.185,0,0,1,.309-.184c.34-.094.684-.171,1.029-.254V5.817C1.03,5.7.911,5.454,1.079,5.229a.886.886,0,0,1,.3-.259.364.364,0,0,0,.214-.294.885.885,0,0,1,.847-.815c.849-.094,1.691-.258,2.539-.37q1.376-.183,2.759-.321a.427.427,0,0,0,.388-.25c.347-.664.7-1.323,1.056-1.984a1.575,1.575,0,0,1,.6-.7Q10.055.1,10.34,0a.411.411,0,0,1,.12.015c.874.019,1.723.022,2.586.03A.589.589,0,0,1,13.46.56H16.3a6.931,6.931,0,0,1,.752.04A1.719,1.719,0,0,1,18.57,2.222c.015.37.006.742.009,1.113,0,.134.016.252.2.25h1.4V2.657a.419.419,0,0,1,.283-.4.923.923,0,0,1,1.058.269c0,1.192,0,2.384-.015,3.6-.164.132-.313.243-.5.382a1.665,1.665,0,0,1,0,.17.436.436,0,0,1-.431.427c-.5.009-.993,0-1.5,0-.192-.487-.384-.97-.571-1.454a.779.779,0,0,0-.822-.574c-.636.009-1.273.029-1.909.038a.776.776,0,0,0-.644.37c-.609.868-1.209,1.743-1.821,2.609a.326.326,0,0,1-.227.126c-2.038.007-4.076,0-6.114.008A.225.225,0,0,1,6.739,8.1Q6.027,6.848,5.3,5.61a.823.823,0,0,0-.824-.456q-.836.06-1.674.1a.908.908,0,0,0-.915.73c-.131.453-.281.9-.432,1.349-.018.055-.1.134-.142.128-.486-.069-1-.08-1.313-.568M13.474,1.662c0,.6.006,1.2,0,1.806,0,.18.05.253.239.242.383-.022.768-.03,1.152-.038.9-.02,1.8-.037,2.706-.058a3.149,3.149,0,0,0,.314-.041c0-.384-.018-.762,0-1.136A1.131,1.131,0,0,0,16.7,1.251c-.952.015-1.9,0-2.856,0-.367,0-.367,0-.367.408m-4.192.749h.1c.294,0,.318.028.319.328v.478h3.007V.769c0-.147-.06-.194-.2-.193-.588,0-1.176-.006-1.764,0a.962.962,0,0,0-.886.491c-.226.414-.429.84-.639,1.262-.008.017.013.048.057.074" transform="translate(-0.327 -0.041)" fill="#4b4b4b"/>
      <path id="Path_279" data-name="Path 279" d="M347.4,145.977c-.161-.034-.306-.062-.448-.1a2.089,2.089,0,1,1,1.029.036c-.108.026-.222.023-.34.05a1.129,1.129,0,0,1-.241.017m.83-2.32h.6l-.266-.621a4.881,4.881,0,0,0-.34.389c-.033.047-.011.132,0,.232m-.039,1.3c.084-.031.118-.072.033-.143A2.017,2.017,0,0,1,348,144.6c-.088-.1-.172-.119-.264-.039v.6c.161-.071.3-.131.462-.21m.551-.685.053-.231c-.17,0-.316-.007-.46,0a.168.168,0,0,0-.135.083.214.214,0,0,0,.044.173c.1.109.223.2.348.312.052-.109.1-.207.15-.341m-1.981-.885-.294-.344-.256.634c.182,0,.322.01.459,0a.26.26,0,0,0,.173-.1c.019-.029-.038-.108-.083-.185m.185,1.631.4.142c0-.187.008-.34,0-.492a.2.2,0,0,0-.1-.131c-.03-.016-.1.011-.133.039-.118.1-.228.2-.35.313.073.052.117.082.189.129m.912-2.412-.15-.025c0,.167-.006.327,0,.485a.16.16,0,0,0,.081.116.166.166,0,0,0,.139-.027c.128-.1.249-.213.4-.341-.186-.087-.31-.145-.469-.208m-1.381,2a3.947,3.947,0,0,0,.366-.332c.085-.1.025-.189-.092-.2-.165-.015-.332,0-.549,0,.1.2.173.354.275.535m.633-1.969-.386.171c.148.144.258.258.375.362a.123.123,0,0,0,.213-.093c.008-.156,0-.312,0-.479a.894.894,0,0,0-.2.039" transform="translate(-331.237 -135.846)" fill="#4b4b4b"/>
      <path id="Path_280" data-name="Path 280" d="M42.828,145.85c-.168-.037-.319-.07-.467-.113a2.027,2.027,0,1,1,.749.1,1.562,1.562,0,0,1-.282.016m.742-3.269-.427-.149v.607c.078.007.177.046.214.014a3.133,3.133,0,0,0,.335-.369s-.061-.056-.121-.1m-.9.5c.036-.05.1-.1.1-.151.014-.155,0-.313,0-.518l-.615.293a4.656,4.656,0,0,0,.508.376m1.253,1.314.126.117.231-.6c-.2,0-.354-.008-.5,0a.2.2,0,0,0-.13.1.159.159,0,0,0,.037.133c.066.08.145.149.241.244m.2-1.25-.1-.163-.42.4c.156.312.432.083.677.192-.061-.169-.1-.284-.154-.43m-1.676,1.4-.291.238.617.264v-.593c-.142-.135-.22-.017-.326.092m-.318-1.347-.185-.245-.067.042-.206.559c.2,0,.353.006.506,0a.123.123,0,0,0,.093-.213c-.035-.043-.079-.079-.14-.141m1.126,1.206c-.027.041-.075.08-.078.122-.009.159,0,.318,0,.523l.6-.28a3.774,3.774,0,0,0-.522-.365m-1.24.02c.088-.089.183-.172.262-.269s.045-.191-.08-.2c-.161-.016-.325,0-.542,0,.093.2.161.356.237.507.005.011.064-.006.123-.031" transform="translate(-39.48 -135.719)" fill="#4b4b4b"/>
    </g>
  </g>
</svg>
