<svg xmlns="http://www.w3.org/2000/svg" width="19.545" height="18.568" viewBox="0 0 19.545 18.568">
  <path id="path" d="M389.191,1222.909a1.774,1.774,0,0,1,1.368.586,1.93,1.93,0,0,1,.586,1.368v10.75a2,2,0,0,1-1.954,1.955H373.555a1.774,1.774,0,0,1-1.368-.586,1.929,1.929,0,0,1-.586-1.368v-10.75a2,2,0,0,1,1.955-1.955h2.932v-1.954a1.774,1.774,0,0,1,.586-1.368,1.928,1.928,0,0,1,1.368-.586H384.3a2,2,0,0,1,1.954,1.954v1.954Zm0,7.818v-5.863h-2.932v1.954H384.3v-1.954h-5.864v1.954h-1.954v-1.954h-2.932v5.863Zm0,4.886v-1.954H373.555v1.954Zm-10.75-14.659v1.954H384.3v-1.954Z" transform="translate(-371.6 -1219)" fill="#09422d"/>
</svg>
