<svg id="Group_6238" data-name="Group 6238" xmlns="http://www.w3.org/2000/svg" xmlns:xlink="http://www.w3.org/1999/xlink" width="34.132" height="16.054" viewBox="0 0 34.132 16.054">
  <defs>
    <clipPath id="clip-path">
      <rect id="Rectangle_1052" data-name="Rectangle 1052" width="34.132" height="16.054" fill="#09422d"/>
    </clipPath>
  </defs>
  <g id="Group_6237" data-name="Group 6237" clip-path="url(#clip-path)">
    <path id="Path_238" data-name="Path 238" d="M.211,8.115a2.471,2.471,0,0,0,.058,2.12,1.539,1.539,0,0,0,1.549,1,2.99,2.99,0,0,0,1.849-.756A7.1,7.1,0,0,0,4.945,8.8C5.53,7.871,6,6.867,6.583,5.934c.046-.073.078-.16.169-.2.067.1.042.2.058.3a5.738,5.738,0,0,1-.257,3.144,3.282,3.282,0,0,1-.906,1.4.452.452,0,0,1-.275.146.755.755,0,0,0-.742.552,1.7,1.7,0,0,1-.16.276,12.081,12.081,0,0,1-2.148,2.809.515.515,0,0,0-.13.567,6.317,6.317,0,0,0,.244.824c.068.165.164.338.421.3a5.392,5.392,0,0,0,.983-.1c-.049-.241.179-.094.285-.148a.378.378,0,0,0-.228-.151c-.065-.027-.12-.058-.129-.141a.528.528,0,0,0-.244-.342c-.239-.2-.259-.3-.1-.564a1.131,1.131,0,0,1,.177-.236,8.977,8.977,0,0,1,2.6-1.911,7.21,7.21,0,0,0,1.259-.7A11.629,11.629,0,0,0,9.963,9.576a.193.193,0,0,1,.151-.092,3.346,3.346,0,0,1,.28,1.2,3.109,3.109,0,0,1-.337,1.59.869.869,0,0,0,.16,1.138,3.826,3.826,0,0,1,.4.434,5.485,5.485,0,0,1,1.051,1.528c.207.606.4.7.973.419a.894.894,0,0,1,.518-.117,1.332,1.332,0,0,0,.81-.018c.2-.088.355-.286.617-.234-.065-.186-.243-.156-.307-.3-.242-.557-.312-.578-.867-.349a.454.454,0,0,1-.552-.119c-.222-.23-.4-.5-.6-.742a.925.925,0,0,1-.163-1c.021-.057.039-.115.059-.173.325-.926.722-1.825,1.008-2.765.242-.793.572-1.557.748-2.37.04-.187.157-.172.289-.15a11.576,11.576,0,0,1,2.152.6,11.561,11.561,0,0,0,3.281.78,1.446,1.446,0,0,1,.56.063c.047.065-.021.111,0,.142.2.361.049.73.019,1.092a6.944,6.944,0,0,0-.175,1.422,6.94,6.94,0,0,1-.013,1.591,8.086,8.086,0,0,1-.166,1.426.713.713,0,0,0,.813.963,2.335,2.335,0,0,1,1.594.074c.084-.319.324-.158.508-.2-.031-.189-.19-.288-.25-.455-.231-.648-.49-.692-.965-.488a.583.583,0,0,1-.129.039.126.126,0,0,1-.136-.058,1.067,1.067,0,0,1,.014-.773,1.985,1.985,0,0,0,.277-.572c.225-.68.507-1.337.776-2a1.555,1.555,0,0,1,.3-.507,1.8,1.8,0,0,0,.4-.631A2.216,2.216,0,0,1,24.1,8.836c.323-.194.491-.2.836.085a3.607,3.607,0,0,1,.752.848,2.731,2.731,0,0,0,.762.735A28.706,28.706,0,0,1,30,13.248a2.642,2.642,0,0,1,.722,1.032,1.262,1.262,0,0,0,.812.7c.179.076.406.041.514.345.056-.261.175-.277.3-.2a1.275,1.275,0,0,0,.768.093c.2-.018.4-.2.666-.169-.155-.375.137-.324.348-.389-.323-.181-.424-.545-.713-.731a.7.7,0,0,0-.32-.1,1.167,1.167,0,0,1-.65-.24,4.928,4.928,0,0,1-1.319-1.517A7.589,7.589,0,0,0,30.1,10.49a11.779,11.779,0,0,1-1.255-1.729.943.943,0,0,1-.177-.415,17.69,17.69,0,0,1,0-2.671.214.214,0,0,1,.151-.209c.074.059.136.171.23.166.262-.013.314.214.448.357a.825.825,0,0,0,.423-.083,1.358,1.358,0,0,1,1.377.056,4.666,4.666,0,0,0,.554.352c.548.293,1.093.373,1.254-.4.021-.1.1-.148.165-.21a1.217,1.217,0,0,0,.282-1.446,2.812,2.812,0,0,0-.169-.323.515.515,0,0,1-.063-.476,1.065,1.065,0,0,0-.023-.717,2.6,2.6,0,0,0-.362-.759.634.634,0,0,1-.08-.772.847.847,0,0,0,.074-.678A.181.181,0,0,0,32.779.6a3.221,3.221,0,0,1-.975.563.52.52,0,0,1-.438-.009,2.664,2.664,0,0,0-.634-.234A1.282,1.282,0,0,1,29.821.39c-.213-.276-.426-.264-.671-.018a.425.425,0,0,1-.338.146,14.106,14.106,0,0,1-3.58-.389,1.957,1.957,0,0,0-1.5.044,3.962,3.962,0,0,1-2.2.372,3.313,3.313,0,0,0-.785.039c-.179.026-.357.051-.536.072-.577.071-1.159.014-1.737.058A16.688,16.688,0,0,1,15.9.683C14.807.6,13.713.5,12.613.519a4.068,4.068,0,0,0-1.9.51q-.688.371-1.381.73c-.6.311-1.221.6-1.813.928A4.847,4.847,0,0,0,5.661,4.874c-.4.786-.7,1.617-1.047,2.429A8.452,8.452,0,0,1,3.531,9.378a3.049,3.049,0,0,1-1.409,1.028A1.137,1.137,0,0,1,.574,9.467,2.257,2.257,0,0,1,1.669,7.209.853.853,0,0,0,2.152,6.7c.052-.171.166-.365-.012-.507s-.355-.007-.493.1A4.121,4.121,0,0,0,.211,8.115" transform="translate(0 0)" fill="#09422d"/>
  </g>
</svg>
